<?xml version="1.0" encoding="UTF-8"?>
<svg xmlns="http://www.w3.org/2000/svg" xmlns:xlink="http://www.w3.org/1999/xlink" width="176px" height="146px" viewBox="0 0 175 146" version="1.1">
<g id="surface1">
<path style=" stroke:none;fill-rule:nonzero;fill:rgb(0%,0%,0%);fill-opacity:1;" d="M 0 72.96875 L 0 145.9375 L 175.0625 145.9375 L 175.0625 0 L 0 0 Z M 89.199219 7.648438 L 89.199219 10.417969 L 91.867188 10.175781 C 93.324219 10.023438 96.691406 9.933594 99.363281 9.933594 C 103.550781 9.960938 104.613281 10.085938 107.222656 10.785156 C 108.890625 11.210938 111.105469 11.972656 112.167969 12.460938 C 113.226562 12.980469 114.078125 13.285156 114.078125 13.160156 C 114.078125 13.007812 113.472656 11.425781 112.742188 9.597656 C 112.015625 7.738281 111.316406 5.941406 111.226562 5.546875 L 111.011719 4.875 L 130.917969 4.875 L 145.175781 22.453125 C 153.003906 32.144531 159.40625 40.277344 159.40625 40.523438 C 159.40625 40.765625 157.34375 43.78125 154.855469 47.222656 C 152.367188 50.667969 150.121094 53.835938 149.847656 54.230469 C 149.394531 54.933594 149.363281 54.933594 147.332031 51.765625 C 142.414062 44.238281 135.648438 35.800781 129.246094 29.15625 L 125.332031 25.136719 L 125.304688 28.972656 C 125.304688 33.605469 125.941406 36.53125 128.308594 42.5625 C 129.21875 44.816406 129.855469 46.980469 129.855469 47.652344 C 129.855469 49.660156 125.820312 58.710938 122.96875 63.066406 C 120.996094 66.082031 119.75 67.148438 115.535156 69.496094 L 112.015625 71.445312 L 111.195312 74.644531 C 110.742188 76.414062 110.253906 77.964844 110.101562 78.117188 C 109.464844 78.820312 109.496094 77.84375 110.222656 75.132812 C 110.648438 73.519531 110.890625 72.207031 110.742188 72.207031 C 110.617188 72.207031 109.980469 72.421875 109.34375 72.695312 C 108.433594 73.089844 107.523438 73.152344 105.429688 73.03125 L 102.699219 72.878906 L 98.300781 68.246094 L 93.871094 63.617188 L 90.59375 64.558594 C 87.652344 65.414062 86.863281 65.503906 83.253906 65.503906 C 80.824219 65.503906 79.1875 65.625 79.1875 65.808594 C 79.1875 66.816406 83.375 75.894531 84.707031 77.785156 C 85.375 78.726562 85.222656 79.214844 84.40625 78.726562 C 83.738281 78.300781 80.765625 72.574219 79.1875 68.671875 C 77.941406 65.625 77.914062 65.566406 76.820312 65.382812 C 76.183594 65.292969 74.96875 65.320312 74.121094 65.472656 C 72.785156 65.6875 72.117188 66.082031 69.417969 68.246094 C 67.6875 69.648438 65.929688 71.019531 65.441406 71.261719 C 64.925781 71.566406 64.683594 71.902344 64.804688 72.207031 C 65.503906 74.003906 66.777344 77.785156 66.6875 77.84375 C 66.535156 78.027344 54.15625 76.503906 49 75.679688 C 46.328125 75.285156 43.566406 74.859375 42.839844 74.738281 C 41.867188 74.613281 41.382812 74.339844 40.898438 73.640625 C 40.292969 72.785156 40.292969 72.632812 40.625 70.320312 C 40.835938 68.976562 40.957031 67.851562 40.898438 67.789062 C 40.835938 67.757812 39.59375 67.300781 38.078125 66.816406 L 35.347656 65.929688 L 26.152344 53.226562 L 16.960938 40.523438 L 30.671875 23.519531 C 38.226562 14.199219 44.722656 6.183594 45.144531 5.699219 L 45.933594 4.875 L 89.199219 4.875 Z M 155.917969 69.433594 C 154.582031 72.480469 153.519531 75.042969 153.582031 75.070312 C 153.609375 75.132812 156.28125 76.625 159.4375 78.394531 C 162.621094 80.191406 165.472656 81.835938 165.777344 82.050781 C 166.292969 82.445312 165.5625 82.75 158.527344 85.09375 C 154.1875 86.558594 150.578125 87.625 150.457031 87.503906 C 150.363281 87.378906 149.542969 83.542969 148.664062 78.972656 C 147.207031 71.414062 147.027344 70.652344 146.417969 70.53125 C 141.351562 69.34375 140.957031 69.222656 141.535156 68.976562 C 143.566406 68.15625 158.222656 63.496094 158.3125 63.675781 C 158.34375 63.769531 157.28125 66.386719 155.917969 69.433594 Z M 25.332031 66.417969 C 35.984375 69.832031 35.316406 69.40625 31.582031 70.257812 C 29.855469 70.652344 28.398438 71.019531 28.335938 71.082031 C 28.308594 71.109375 27.488281 74.828125 26.515625 79.367188 C 25.578125 83.875 24.726562 87.65625 24.667969 87.746094 C 24.515625 87.898438 9.101562 82.78125 9.101562 82.566406 C 9.101562 82.476562 11.984375 80.859375 15.472656 78.972656 C 18.992188 77.050781 21.84375 75.4375 21.84375 75.375 C 21.84375 75.285156 19.78125 70.59375 17.382812 65.230469 C 16.929688 64.195312 16.808594 63.648438 17.050781 63.738281 C 17.261719 63.828125 20.996094 65.015625 25.332031 66.417969 Z M 145.328125 74.859375 C 145.328125 75.195312 149.273438 96.398438 149.453125 96.917969 C 149.542969 97.3125 149 97.558594 146.632812 98.195312 C 136.894531 100.816406 123.363281 103.132812 110.890625 104.351562 C 102.367188 105.171875 96.570312 105.417969 86.46875 105.417969 C 71.207031 105.417969 60.742188 104.59375 47.332031 102.371094 C 37.4375 100.726562 25.484375 97.984375 25.484375 97.375 C 25.484375 96.917969 30.097656 75.742188 30.21875 75.589844 C 30.308594 75.5 32.644531 76.015625 35.4375 76.71875 C 63.105469 83.664062 93.902344 84.609375 124.089844 79.488281 C 130.308594 78.421875 137.5625 76.839844 141.839844 75.589844 C 145.359375 74.585938 145.328125 74.585938 145.328125 74.859375 Z M 107.707031 112.636719 C 92.960938 133.144531 88.714844 138.992188 88.472656 139.023438 C 88.167969 139.082031 66.351562 109.042969 66.566406 108.859375 C 66.65625 108.738281 78.0625 109.378906 78.15625 109.5 C 78.15625 109.5 79.097656 112.121094 80.25 115.320312 C 86.652344 133.417969 87.710938 136.371094 87.925781 136.800781 C 88.046875 137.042969 88.199219 131.039062 88.289062 123.421875 L 88.441406 109.621094 L 93.507812 109.46875 C 96.296875 109.378906 100.726562 109.132812 103.367188 108.921875 C 106.007812 108.707031 108.738281 108.523438 109.4375 108.496094 L 110.742188 108.464844 Z M 107.707031 112.636719 "/>
<path style=" stroke:none;fill-rule:nonzero;fill:rgb(0%,0%,0%);fill-opacity:1;" d="M 92.992188 10.96875 C 89.59375 11.363281 85.074219 12.371094 81.796875 13.464844 C 75.699219 15.539062 68.597656 19.4375 66.597656 21.84375 C 64.53125 24.3125 62.347656 27.175781 61.042969 29.125 C 58.980469 32.203125 50.910156 38.023438 38.894531 45.09375 C 31.886719 49.234375 32.128906 48.960938 32.886719 51.488281 C 33.707031 54.171875 33.980469 54.535156 35.101562 54.535156 C 35.679688 54.535156 36.40625 54.382812 36.742188 54.230469 C 37.347656 53.898438 37.53125 52.859375 37.015625 52.554688 C 36.5 52.222656 36.679688 50.910156 37.289062 50.574219 C 37.621094 50.421875 38.714844 50.269531 39.714844 50.269531 C 41.414062 50.269531 41.597656 50.210938 42.292969 49.265625 C 42.71875 48.71875 43.234375 47.621094 43.417969 46.828125 C 43.660156 46.003906 43.992188 45.398438 44.234375 45.398438 C 45.265625 45.398438 43.203125 50.117188 41.867188 50.789062 C 41.445312 51.003906 40.351562 51.183594 39.410156 51.183594 C 38.472656 51.183594 37.621094 51.277344 37.53125 51.367188 C 37.410156 51.488281 37.53125 51.945312 37.804688 52.375 C 38.53125 53.621094 37.957031 54.71875 36.347656 55.144531 C 35.617188 55.328125 34.921875 55.511719 34.800781 55.542969 C 34.679688 55.574219 35.222656 56.578125 36.042969 57.734375 C 37.683594 60.082031 41.625 64.011719 43.566406 65.292969 L 44.78125 66.113281 L 47.359375 65.167969 C 49.421875 64.378906 50.515625 64.164062 53.09375 64.042969 L 56.28125 63.921875 L 58.890625 62.304688 C 62.5625 60.019531 65.414062 58.621094 68.660156 57.523438 C 71.296875 56.609375 71.753906 56.546875 76.757812 56.425781 C 82.160156 56.335938 85.285156 56.578125 85.253906 57.125 C 85.253906 57.308594 83.34375 57.402344 79.976562 57.308594 L 74.695312 57.21875 L 74.058594 58.46875 C 73.695312 59.136719 73.363281 59.714844 73.300781 59.714844 C 73.210938 59.714844 72.875 59.257812 72.542969 58.679688 C 71.691406 57.308594 70.8125 57.492188 70.359375 59.167969 L 70.054688 60.355469 L 69.054688 59.59375 C 67.71875 58.589844 66.839844 58.800781 66.566406 60.203125 C 66.351562 61.363281 66.019531 61.484375 65.167969 60.722656 C 64.625 60.234375 64.503906 60.234375 63.773438 60.660156 C 63.078125 61.027344 62.957031 61.332031 62.863281 62.703125 C 62.804688 63.585938 62.683594 64.285156 62.5625 64.285156 C 62.4375 64.285156 61.679688 64.042969 60.890625 63.769531 L 59.4375 63.25 L 57.917969 64.101562 C 56.582031 64.835938 56.039062 64.957031 53.308594 65.046875 C 50.847656 65.109375 49.789062 65.292969 48.117188 65.929688 C 46.9375 66.386719 45.933594 66.785156 45.875 66.84375 C 45.632812 67.121094 46.875 68.644531 48.332031 69.769531 L 49.847656 70.988281 L 64.230469 70.988281 L 65.414062 70.195312 C 66.050781 69.738281 67.628906 68.550781 68.871094 67.515625 C 72.875 64.195312 72.601562 64.253906 81.3125 64.710938 C 85.769531 64.925781 86.164062 64.894531 88.894531 64.195312 C 93.8125 62.886719 93.445312 63.21875 93.445312 60.082031 C 93.445312 57.859375 93.660156 56.609375 94.628906 53.136719 C 95.480469 50.148438 95.875 48.046875 95.996094 46.003906 C 96.175781 42.808594 95.8125 35.800781 95.238281 31.992188 L 94.902344 29.554688 L 91.808594 29.554688 C 89.046875 29.554688 88.5625 29.644531 86.832031 30.46875 C 84.738281 31.441406 84.34375 31.5625 84.34375 31.078125 C 84.34375 30.894531 85.195312 30.375 86.257812 29.859375 C 87.832031 29.097656 88.652344 28.945312 91.382812 28.761719 L 94.628906 28.578125 L 93.871094 27.054688 C 93.445312 26.203125 92.292969 24.679688 91.292969 23.671875 C 90.320312 22.636719 89.503906 21.691406 89.503906 21.570312 C 89.503906 20.292969 93.386719 24.3125 94.628906 26.871094 C 96.085938 29.828125 96.570312 33.757812 96.601562 42.351562 L 96.632812 49.507812 L 95.507812 53.195312 C 94.507812 56.425781 94.355469 57.25 94.355469 59.898438 L 94.386719 62.914062 L 98.484375 67.332031 C 100.757812 69.769531 102.882812 71.84375 103.214844 71.996094 C 103.550781 72.117188 104.882812 72.238281 106.1875 72.238281 C 108.34375 72.269531 108.707031 72.175781 111.074219 70.988281 C 112.46875 70.289062 115.019531 68.886719 116.71875 67.882812 C 119.355469 66.359375 120.054688 65.75 121.296875 64.074219 C 123.757812 60.78125 128.582031 50.910156 129.097656 48.046875 C 129.246094 47.316406 129.035156 46.460938 128.246094 44.636719 C 127.183594 42.074219 125.578125 37.382812 124.96875 35.039062 C 124.789062 34.277344 124.542969 30.222656 124.421875 26.050781 C 124.273438 21.296875 124.027344 18.066406 123.816406 17.457031 C 123.332031 16.238281 122.480469 15.933594 118.539062 15.570312 C 115.898438 15.292969 115.261719 15.113281 112.46875 13.742188 C 108.253906 11.667969 105.035156 10.9375 99.667969 10.816406 C 97.332031 10.753906 94.328125 10.816406 92.992188 10.96875 Z M 85.863281 19.804688 C 85.863281 19.957031 85.496094 20.167969 85.042969 20.292969 C 84.558594 20.382812 83.34375 21.023438 82.28125 21.722656 L 80.402344 22.941406 L 78.671875 22.453125 C 76.910156 21.9375 76 22.121094 75.457031 23.035156 C 75.183594 23.519531 74.332031 23.613281 74.332031 23.1875 C 74.332031 22.667969 76.214844 21.328125 76.941406 21.328125 C 77.335938 21.328125 78.277344 21.480469 79.003906 21.691406 C 80.277344 22.027344 80.429688 21.996094 81.675781 21.175781 C 82.402344 20.6875 83.3125 20.109375 83.738281 19.894531 C 84.617188 19.4375 85.863281 19.378906 85.863281 19.804688 Z M 66.292969 26.8125 C 65.019531 29.339844 64.988281 29.675781 65.929688 29.429688 C 66.445312 29.308594 66.839844 29.460938 67.355469 30.011719 C 67.75 30.4375 68.234375 30.773438 68.445312 30.773438 C 68.628906 30.773438 69.539062 30.285156 70.417969 29.675781 C 71.753906 28.761719 72.453125 28.546875 74.179688 28.363281 C 75.847656 28.210938 76.699219 27.90625 78.125 27.085938 C 80.734375 25.53125 84.042969 24.253906 84.40625 24.617188 C 84.617188 24.832031 84.375 25.105469 83.707031 25.441406 C 81.828125 26.414062 80.066406 28.089844 77.457031 31.382812 C 74.96875 34.550781 74.394531 35.039062 72.875 35.039062 C 71.785156 35.039062 72.238281 34.304688 73.390625 34.183594 C 74.242188 34.09375 74.332031 34 74.152344 33.421875 C 74.027344 33.058594 73.847656 31.992188 73.757812 31.078125 C 73.511719 28.945312 73.117188 28.851562 70.691406 30.4375 C 69.628906 31.136719 68.6875 31.6875 68.566406 31.6875 C 68.445312 31.6875 67.839844 31.351562 67.203125 30.925781 C 66.597656 30.496094 65.835938 30.164062 65.5625 30.191406 C 64.015625 30.34375 63.957031 29.859375 65.261719 27.117188 C 66.324219 24.863281 66.71875 24.3125 67.082031 24.558594 C 67.234375 24.648438 66.867188 25.652344 66.292969 26.8125 Z M 62.410156 35.707031 C 62.316406 36.347656 61.921875 37.535156 61.527344 38.328125 L 60.832031 39.761719 L 58.949219 39.761719 C 57.097656 39.761719 57.039062 39.789062 55.523438 41.285156 C 53.730469 43.019531 52.183594 45.246094 52.183594 46.035156 C 52.183594 46.765625 51.609375 47.070312 51.394531 46.492188 C 51.09375 45.671875 52.488281 43.265625 54.582031 41.101562 L 56.582031 39 L 60.40625 39 L 60.984375 37.6875 C 61.316406 36.988281 61.589844 35.980469 61.589844 35.464844 C 61.589844 34.429688 61.832031 34.03125 62.289062 34.335938 C 62.4375 34.429688 62.5 35.039062 62.410156 35.707031 Z M 69.265625 37.324219 C 69.871094 37.566406 71.117188 37.78125 72.058594 37.78125 C 72.96875 37.78125 73.726562 37.902344 73.726562 38.085938 C 73.726562 38.570312 69.902344 38.449219 68.660156 37.933594 C 68.082031 37.6875 67.261719 37.476562 66.867188 37.476562 C 66.472656 37.476562 66.140625 37.324219 66.140625 37.171875 C 66.140625 36.714844 68.050781 36.804688 69.265625 37.324219 Z M 121.359375 39.089844 C 121.359375 40.550781 116.171875 47.011719 113.5 48.871094 C 112.015625 49.90625 111.40625 49.632812 112.710938 48.535156 C 115.261719 46.402344 117.929688 43.445312 119.328125 41.222656 C 120.84375 38.785156 121.359375 38.265625 121.359375 39.089844 Z M 80.1875 49.023438 C 81.707031 49.691406 83.34375 50.332031 83.828125 50.421875 C 84.285156 50.546875 84.648438 50.851562 84.648438 51.09375 C 84.648438 51.613281 84.253906 51.519531 80.703125 50.058594 C 75.726562 48.046875 74.667969 48.046875 72.148438 50.210938 C 70.144531 51.917969 68.355469 52.769531 64.503906 53.773438 C 62.410156 54.355469 61.4375 54.507812 61.195312 54.261719 C 60.832031 53.898438 60.617188 53.988281 64.746094 52.890625 C 68.324219 51.917969 69.328125 51.429688 71.875 49.386719 C 73.695312 47.925781 73.90625 47.832031 75.578125 47.832031 C 76.972656 47.832031 77.972656 48.078125 80.1875 49.023438 Z M 80.1875 49.023438 "/>
<path style=" stroke:none;fill-rule:nonzero;fill:rgb(0%,0%,0%);fill-opacity:1;" d="M 34.585938 82.261719 C 34.585938 82.445312 34.164062 85.398438 33.648438 88.84375 C 33.132812 92.285156 32.765625 95.148438 32.828125 95.179688 C 33.160156 95.394531 37.652344 96.277344 38.441406 96.277344 C 39.652344 96.277344 41.082031 95.121094 41.929688 93.414062 C 42.355469 92.558594 42.597656 91.371094 42.71875 89.542969 C 42.839844 87.226562 42.777344 86.710938 42.171875 85.460938 C 41.414062 83.875 40.261719 83.175781 37.46875 82.566406 C 36.621094 82.414062 35.648438 82.199219 35.285156 82.109375 C 34.890625 82.019531 34.585938 82.078125 34.585938 82.261719 Z M 39.503906 85.644531 C 40.414062 86.132812 40.746094 87.867188 40.351562 90.09375 C 39.988281 92.164062 39.59375 93.199219 39.015625 93.597656 C 38.5625 93.929688 36.894531 93.902344 36.011719 93.566406 L 35.285156 93.292969 L 35.863281 89.359375 C 36.164062 87.226562 36.5 85.308594 36.558594 85.09375 C 36.679688 84.730469 38.347656 85.035156 39.503906 85.644531 Z M 39.503906 85.644531 "/>
<path style=" stroke:none;fill-rule:nonzero;fill:rgb(0%,0%,0%);fill-opacity:1;" d="M 135.101562 82.566406 C 133.253906 83.695312 132.644531 86.101562 133.796875 87.960938 C 134.527344 89.207031 135.164062 89.511719 137.316406 89.757812 C 139.59375 90.03125 140.167969 90.335938 140.167969 91.25 C 140.167969 92.347656 139.136719 93.230469 137.957031 93.230469 C 136.953125 93.230469 135.921875 92.5 135.921875 91.769531 C 135.921875 91.3125 135.042969 91.3125 134.191406 91.796875 C 133.527344 92.164062 133.527344 92.164062 134.070312 93.414062 C 134.832031 95.089844 135.710938 95.667969 137.53125 95.667969 C 139.351562 95.667969 141.203125 94.753906 141.839844 93.535156 C 142.777344 91.675781 142.203125 88.507812 140.746094 87.714844 C 140.382812 87.53125 139.199219 87.257812 138.105469 87.105469 C 137.015625 86.953125 135.953125 86.679688 135.710938 86.496094 C 135.042969 85.917969 135.253906 85.035156 136.226562 84.546875 C 137.4375 83.90625 137.894531 83.96875 138.59375 84.851562 C 139.257812 85.703125 139.472656 85.734375 140.59375 85.308594 C 141.292969 85.066406 141.324219 84.941406 141.050781 84.089844 C 140.867188 83.601562 140.382812 82.902344 139.957031 82.566406 C 138.894531 81.746094 136.4375 81.746094 135.101562 82.566406 Z M 135.101562 82.566406 "/>
<path style=" stroke:none;fill-rule:nonzero;fill:rgb(0%,0%,0%);fill-opacity:1;" d="M 126.820312 83.847656 C 124.515625 84.515625 123.148438 86.34375 122.695312 89.421875 L 122.480469 90.914062 L 122.148438 89.542969 C 121.417969 86.769531 119.75 85.308594 117.261719 85.308594 C 113.714844 85.308594 111.742188 88.140625 112.015625 92.804688 C 112.257812 96.582031 114.230469 99.019531 117.019531 99.019531 C 120.417969 99.019531 122.480469 96.550781 122.601562 92.316406 L 122.632812 90.945312 L 122.90625 92.253906 C 123.242188 93.929688 124.332031 95.910156 125.332031 96.671875 C 126.609375 97.617188 128.703125 97.710938 130.066406 96.886719 C 130.765625 96.460938 131.25 96.339844 131.3125 96.550781 C 131.371094 96.734375 131.886719 96.886719 132.464844 96.886719 C 133.433594 96.886719 133.496094 96.824219 133.496094 95.882812 C 133.496094 94.9375 132.886719 89.484375 132.765625 89.359375 C 132.644531 89.207031 128.488281 89.96875 128.246094 90.183594 C 128.125 90.273438 128.125 90.824219 128.214844 91.371094 C 128.429688 92.316406 128.457031 92.347656 129.550781 92.164062 C 130.550781 92.011719 130.703125 92.042969 130.855469 92.621094 C 131.097656 93.535156 130.886719 93.929688 129.882812 94.539062 C 127.214844 96.125 125 94.023438 125 89.878906 C 125 87.65625 126.425781 85.917969 128.214844 85.917969 C 128.488281 85.917969 129.097656 86.3125 129.582031 86.832031 C 130.308594 87.5625 130.671875 87.683594 131.371094 87.53125 C 131.949219 87.441406 132.28125 87.167969 132.28125 86.863281 C 132.28125 85.949219 131.066406 84.363281 130.007812 83.90625 C 128.824219 83.417969 128.308594 83.417969 126.820312 83.847656 Z M 119.570312 89.390625 C 119.902344 90.152344 120.144531 91.339844 120.144531 92.5 C 120.144531 95.605469 118.445312 97.34375 116.292969 96.429688 C 115.019531 95.882812 114.382812 94.359375 114.382812 91.769531 C 114.382812 89.910156 114.472656 89.484375 115.140625 88.691406 C 116.566406 87.015625 118.628906 87.351562 119.570312 89.390625 Z M 119.570312 89.390625 "/>
<path style=" stroke:none;fill-rule:nonzero;fill:rgb(0%,0%,0%);fill-opacity:1;" d="M 44.175781 85.035156 C 43.902344 86.527344 42.777344 96.125 42.777344 96.824219 C 42.777344 97.28125 43.144531 97.464844 44.722656 97.738281 C 47.359375 98.226562 47.269531 98.257812 47.9375 96.703125 L 48.542969 95.300781 L 50 95.515625 C 52.699219 95.882812 52.792969 95.941406 52.972656 97.253906 C 53.214844 98.746094 53.792969 99.324219 54.945312 99.324219 C 55.703125 99.324219 55.824219 99.234375 55.671875 98.625 C 55.582031 98.257812 54.976562 95.425781 54.308594 92.316406 C 53.640625 89.207031 53.035156 86.375 52.941406 86.039062 C 52.851562 85.550781 52.519531 85.339844 51.730469 85.246094 C 51.121094 85.1875 50.546875 85.277344 50.394531 85.429688 C 50.273438 85.613281 49.027344 88.417969 47.632812 91.617188 C 46.238281 94.84375 45.054688 97.433594 45.023438 97.40625 C 44.964844 97.34375 45.265625 94.480469 45.691406 90.976562 C 46.117188 87.503906 46.417969 84.578125 46.359375 84.515625 C 46.269531 84.457031 45.8125 84.304688 45.265625 84.210938 C 44.386719 84.027344 44.328125 84.089844 44.175781 85.035156 Z M 51.851562 91.21875 C 52.03125 92.226562 52.183594 93.140625 52.183594 93.261719 C 52.183594 93.445312 49.789062 93.292969 49.542969 93.078125 C 49.484375 93.046875 49.816406 92.101562 50.273438 91.007812 C 50.726562 89.878906 51.183594 89.054688 51.273438 89.179688 C 51.394531 89.332031 51.636719 90.246094 51.851562 91.21875 Z M 51.851562 91.21875 "/>
<path style=" stroke:none;fill-rule:nonzero;fill:rgb(0%,0%,0%);fill-opacity:1;" d="M 56.917969 86.589844 C 56.675781 87.378906 56.097656 99.050781 56.28125 99.324219 C 56.371094 99.507812 56.855469 99.628906 57.3125 99.628906 C 58.160156 99.628906 58.160156 99.628906 58.34375 97.101562 C 58.464844 95.730469 58.554688 93.839844 58.554688 92.894531 C 58.554688 89.757812 59.011719 90.730469 59.617188 95.273438 L 60.222656 99.78125 L 61.347656 99.871094 C 62.4375 99.964844 62.46875 99.933594 62.804688 98.652344 C 63.015625 97.921875 63.5625 95.972656 64.046875 94.296875 L 64.925781 91.25 L 64.746094 95.699219 L 64.5625 100.148438 L 65.441406 100.328125 C 65.898438 100.421875 66.382812 100.390625 66.472656 100.300781 C 66.746094 100.023438 67.476562 87.441406 67.234375 87.226562 C 67.140625 87.136719 66.414062 86.984375 65.59375 86.894531 L 64.109375 86.769531 L 62.957031 90.945312 C 62.167969 93.65625 61.710938 94.90625 61.558594 94.539062 C 61.46875 94.234375 61.132812 92.347656 60.863281 90.335938 C 60.558594 88.324219 60.253906 86.589844 60.195312 86.464844 C 59.921875 86.070312 57.039062 86.191406 56.917969 86.589844 Z M 56.917969 86.589844 "/>
<path style=" stroke:none;fill-rule:nonzero;fill:rgb(0%,0%,0%);fill-opacity:1;" d="M 103.640625 86.800781 L 102.125 86.984375 L 102.214844 89.117188 C 102.246094 90.273438 102.398438 93.109375 102.546875 95.363281 C 102.730469 97.617188 102.851562 99.660156 102.851562 99.902344 C 102.851562 100.238281 103.335938 100.300781 105.460938 100.117188 C 108.253906 99.902344 109.4375 99.476562 110.375 98.257812 C 111.832031 96.398438 111.984375 91.738281 110.710938 89.054688 C 109.558594 86.679688 108.191406 86.253906 103.640625 86.800781 Z M 108.433594 89.96875 C 109.191406 91.007812 109.496094 94.875 108.917969 96.277344 C 108.527344 97.191406 107.34375 97.800781 105.855469 97.800781 C 105.035156 97.800781 105.035156 97.769531 104.855469 95.578125 C 104.519531 90.976562 104.460938 89.300781 104.613281 89.117188 C 104.734375 89.027344 105.460938 88.964844 106.3125 89.027344 C 107.523438 89.085938 107.917969 89.269531 108.433594 89.96875 Z M 108.433594 89.96875 "/>
<path style=" stroke:none;fill-rule:nonzero;fill:rgb(0%,0%,0%);fill-opacity:1;" d="M 70.386719 87.808594 C 68.8125 88.875 67.929688 90.703125 67.75 93.320312 C 67.535156 96.1875 67.992188 97.863281 69.449219 99.414062 C 70.539062 100.574219 70.753906 100.664062 72.542969 100.785156 C 74.210938 100.878906 74.636719 100.785156 75.546875 100.175781 C 76.121094 99.78125 76.941406 98.835938 77.367188 98.105469 C 78.003906 96.917969 78.125 96.339844 78.125 93.992188 C 78.125 90.855469 77.488281 89.238281 75.789062 88.019531 C 74.332031 86.953125 71.785156 86.863281 70.386719 87.808594 Z M 74.363281 89.878906 C 75.304688 90.398438 75.847656 91.828125 75.847656 93.902344 C 75.847656 97.984375 73.210938 99.996094 70.964844 97.617188 C 70.207031 96.796875 69.84375 94.175781 70.207031 92.132812 C 70.601562 90.0625 72.601562 88.964844 74.363281 89.878906 Z M 74.363281 89.878906 "/>
<path style=" stroke:none;fill-rule:nonzero;fill:rgb(0%,0%,0%);fill-opacity:1;" d="M 78.882812 94.144531 L 78.882812 100.847656 L 80.976562 100.847656 L 81.066406 96.796875 L 81.160156 92.773438 L 83.28125 96.886719 C 85.40625 100.96875 85.40625 101 86.46875 101 L 87.53125 101 L 87.53125 87.59375 L 86.558594 87.503906 L 85.589844 87.410156 L 85.496094 91.769531 L 85.40625 96.125 L 83.191406 91.769531 C 81.007812 87.441406 81.007812 87.441406 79.945312 87.441406 L 78.882812 87.441406 Z M 78.882812 94.144531 "/>
<path style=" stroke:none;fill-rule:nonzero;fill:rgb(0%,0%,0%);fill-opacity:1;" d="M 88.804688 87.65625 C 88.714844 87.808594 88.714844 90.855469 88.804688 94.417969 L 88.988281 100.90625 L 91.960938 100.785156 C 95.328125 100.695312 96.148438 100.300781 97.207031 98.226562 C 98.117188 96.492188 98.117188 91.796875 97.179688 90.03125 C 96.027344 87.835938 95.601562 87.59375 92.082031 87.503906 C 90.382812 87.441406 88.894531 87.503906 88.804688 87.65625 Z M 94.964844 90.855469 C 95.449219 91.644531 95.570312 92.40625 95.570312 94.328125 C 95.570312 97.527344 95.054688 98.289062 92.839844 98.472656 C 91.777344 98.53125 91.292969 98.441406 91.171875 98.167969 C 91.082031 97.921875 91.019531 95.972656 91.019531 93.808594 L 91.019531 89.878906 L 92.6875 89.878906 C 94.265625 89.878906 94.417969 89.941406 94.964844 90.855469 Z M 94.964844 90.855469 "/>
</g>
</svg>
